<?xml version="1.0" standalone="no"?>
<!DOCTYPE svg PUBLIC "-//W3C//DTD SVG 20010904//EN"
 "http://www.w3.org/TR/2001/REC-SVG-20010904/DTD/svg10.dtd">
<svg version="1.0" xmlns="http://www.w3.org/2000/svg"
 width="693.000000pt" height="832.000000pt" viewBox="0 0 693.000000 832.000000"
 preserveAspectRatio="xMidYMid meet">
<metadata>
Created by potrace 1.16, written by Peter Selinger 2001-2019
</metadata>
<g transform="translate(0.000000,832.000000) scale(0.100000,-0.100000)"
fill="#000000" stroke="none">
<path d="M3365 6773 c-16 -2 -136 -7 -265 -12 -194 -8 -254 -14 -343 -35 -138
-33 -180 -60 -199 -131 -12 -45 -16 -50 -48 -56 -43 -9 -149 -121 -150 -157 0
-15 -7 -26 -21 -29 -26 -7 -89 -130 -85 -166 3 -23 0 -26 -20 -21 -18 5 -26 0
-38 -25 -20 -38 -20 -47 -1 -31 22 19 30 -12 12 -47 l-16 -28 -9 24 -9 25 -7
-29 c-5 -18 -3 -31 4 -35 9 -6 9 -13 0 -30 -6 -12 -24 -60 -40 -107 -33 -97
-52 -123 -92 -123 -24 0 -35 -11 -79 -77 -51 -78 -51 -78 -46 -145 3 -44 0
-71 -8 -80 -12 -13 -165 -285 -217 -388 -16 -30 -48 -73 -72 -95 l-44 -40 -5
-117 c-6 -127 -5 -130 56 -156 l27 -12 -2 -167 -3 -167 -37 -9 -38 -9 0 -124
c0 -86 4 -126 13 -133 60 -49 87 -75 87 -85 0 -14 207 -406 226 -427 9 -10 14
-39 14 -87 0 -68 2 -76 45 -142 43 -67 52 -74 110 -82 30 -4 95 -205 87 -268
-5 -43 -5 -44 13 -26 18 17 19 17 31 -6 15 -27 18 -68 5 -68 -5 0 -17 8 -27
17 -16 16 -16 16 -9 -7 11 -39 33 -68 55 -75 11 -3 20 -14 20 -23 0 -36 57
-157 78 -167 12 -5 22 -17 22 -25 0 -9 27 -57 61 -107 52 -78 65 -92 94 -97
35 -7 39 -13 51 -81 14 -84 63 -137 169 -186 39 -17 99 -44 134 -60 l63 -29
-16 -25 c-9 -14 -14 -25 -12 -25 3 0 36 -6 73 -14 139 -30 761 -18 1098 20 86
9 131 11 133 4 9 -26 92 0 92 29 0 6 11 11 25 11 14 0 25 -5 25 -11 0 -7 10
-9 25 -5 14 4 25 2 25 -4 0 -5 10 -10 22 -10 20 0 19 2 -7 24 -16 14 -32 23
-37 20 -4 -3 -8 -1 -8 4 0 6 19 17 42 27 31 12 38 19 28 25 -8 5 -21 5 -31 -1
-23 -12 -66 -12 -74 1 -3 6 -17 10 -31 10 -25 0 -33 15 -11 23 9 4 9 6 -1 6
-7 1 -11 5 -8 10 3 5 24 7 46 4 23 -3 46 -1 54 6 10 8 22 8 47 -3 35 -14 58
-11 71 8 13 18 9 36 -7 36 -8 0 -15 4 -15 9 0 13 26 21 68 21 l36 0 -32 28
c-18 16 -32 33 -32 38 0 5 -9 15 -20 22 -31 19 -14 33 31 26 26 -4 39 -3 39 5
0 6 -15 12 -32 12 -66 3 -139 -1 -149 -7 -15 -9 -39 16 -39 41 0 13 9 68 20
123 39 199 92 647 107 907 4 69 10 106 21 118 12 13 12 17 2 17 -16 0 -3 15
13 15 7 0 11 8 11 18 -1 9 3 14 9 10 6 -4 8 0 4 11 -4 9 -3 15 2 12 12 -8 64
92 55 106 -4 6 -3 8 4 5 13 -9 95 139 86 155 -5 7 -3 8 6 3 10 -6 12 -4 7 8
-4 10 -2 16 5 14 10 -2 21 20 34 71 2 7 23 25 48 40 42 26 44 29 50 86 3 32 6
94 6 136 0 72 -2 79 -26 95 l-25 16 3 154 c3 146 4 155 27 179 23 25 24 29 18
148 -4 101 -8 125 -22 133 -66 39 -80 52 -83 80 -2 17 -9 35 -16 40 -14 12
-208 371 -206 381 1 4 -5 11 -14 16 -12 7 -16 26 -16 83 0 63 -4 80 -29 122
-25 42 -30 64 -40 178 -31 344 -103 698 -168 830 -9 17 -29 45 -46 63 l-31 32
-375 -2 c-207 0 -389 -3 -406 -5z m-724 -1083 c10 -6 19 -17 19 -25 0 -12 -11
-14 -60 -8 l-60 6 0 -32 c0 -30 2 -31 40 -31 29 0 40 4 40 15 0 8 -9 15 -21
15 -11 0 -17 -4 -14 -10 3 -5 1 -10 -4 -10 -6 0 -11 7 -11 15 0 11 12 15 46
15 45 0 45 0 42 -32 -3 -32 -5 -33 -54 -38 -28 -3 -62 -3 -75 0 -47 11 -51
102 -6 120 31 12 94 12 118 0z m697 -48 c3 -48 1 -53 -23 -62 -34 -13 -101
-13 -125 0 -14 7 -18 21 -18 57 0 26 5 51 11 55 7 5 44 7 82 6 l70 -3 3 -53z
m-107 -559 c1 -24 3 -30 6 -15 2 12 9 19 15 16 6 -4 5 2 -1 15 l-12 21 213 -2
213 -3 0 -40 0 -40 -225 0 -225 0 -3 43 c-2 25 1 42 7 42 6 0 12 -17 12 -37z
m-463 -392 l-3 -146 -39 -3 c-82 -7 -81 -7 -78 120 4 191 -3 173 65 174 l58 0
-3 -145z m174 137 c2 -7 4 -74 3 -148 l0 -135 -39 -3 c-84 -7 -86 -5 -86 113
0 68 4 105 11 105 6 0 8 9 4 21 -5 16 -4 19 5 14 9 -5 11 -4 6 4 -4 7 -5 18
-2 26 7 19 92 21 98 3z m178 -137 l0 -151 -37 0 c-87 0 -84 -5 -82 155 l1 142
59 2 59 2 0 -150z m79 137 c11 -10 13 -10 7 0 -5 9 6 12 43 12 l51 0 0 -150 0
-150 -65 0 -66 0 2 130 c0 72 5 133 10 136 5 3 9 11 9 17 0 7 -4 6 -10 -3 -8
-13 -10 -12 -10 3 0 20 11 22 29 5z m181 -5 c11 -17 11 -17 6 0 -5 14 1 17 39
17 l43 0 7 -62 c3 -35 5 -101 3 -148 l-3 -85 -62 -3 -63 -3 0 151 c0 146 6
171 30 133z m170 3 c0 6 23 12 54 13 l54 2 1 -134 c1 -73 -1 -141 -5 -150 -4
-12 -18 -17 -49 -17 -77 0 -75 -5 -75 159 0 98 3 141 10 131 5 -8 10 -10 10
-4z m-80 -436 c0 -7 -149 -10 -427 -10 -280 0 -423 4 -413 10 21 13 840 13
840 0z m-652 -184 c2 -64 -1 -103 -9 -112 -7 -9 -31 -14 -65 -14 -42 0 -55 4
-64 19 -11 22 -14 194 -3 205 4 4 37 6 73 4 l65 -3 3 -99z m302 84 c0 -18 -7
-20 -55 -20 -40 0 -55 -4 -55 -14 0 -16 30 -26 78 -26 l32 0 0 -57 c0 -75 -16
-93 -85 -93 -54 0 -75 12 -75 42 0 13 8 18 25 18 14 0 25 -5 25 -11 0 -6 12
-9 28 -7 23 3 28 8 30 37 l3 33 -55 -6 -56 -7 0 65 0 66 80 0 c73 0 80 -2 80
-20z m187 -84 c2 -62 -1 -104 -8 -113 -14 -16 -110 -18 -127 -1 -13 13 -17
199 -5 212 4 4 37 6 73 4 l65 -3 2 -99z m127 -1108 c9 -12 12 -26 7 -31 -4 -4
-61 -9 -125 -9 -78 0 -116 -4 -116 -12 0 -7 -3 -7 -8 1 -9 14 -63 23 -77 13
-5 -4 -36 -4 -69 0 -44 5 -62 3 -72 -8 -8 -7 -14 -9 -14 -3 0 6 -12 11 -26 11
-17 0 -23 -4 -18 -12 6 -10 4 -10 -8 0 -9 7 -18 9 -21 5 -6 -10 -59 -9 -75 1
-15 9 -15 39 0 54 9 9 91 12 309 12 296 0 298 0 313 -22z"/>
<path d="M6890 5508 c-61 -26 -71 -34 -87 -70 -9 -21 -22 -38 -29 -38 -16 0
-27 -29 -25 -61 2 -21 -4 -29 -29 -39 -31 -13 -55 -44 -46 -59 7 -11 -30 -28
-76 -36 -41 -6 -43 -11 -53 -100 -3 -33 -16 -78 -27 -100 -15 -29 -19 -50 -14
-82 5 -38 3 -45 -19 -59 -18 -12 -25 -25 -25 -49 0 -43 23 -52 49 -19 10 13
31 31 47 39 26 13 29 12 61 -16 19 -16 38 -29 43 -29 13 0 4 -36 -20 -82 -33
-63 -25 -108 20 -108 19 0 36 10 54 30 22 26 28 29 44 19 28 -18 46 -49 28
-49 -8 0 -33 -20 -56 -44 -63 -66 -116 -88 -226 -94 -51 -2 -105 -1 -121 3
l-28 7 32 28 c18 16 50 34 72 40 22 6 56 17 77 26 36 15 37 17 20 30 -11 8
-30 11 -48 7 -20 -4 -35 0 -48 12 -18 16 -25 14 -21 -7 0 -5 -6 -8 -14 -8 -8
0 -17 -10 -20 -23 -7 -25 -80 -57 -131 -57 l-29 0 38 34 c21 19 51 37 67 41
25 6 50 30 50 48 0 3 -11 12 -24 20 -21 14 -25 14 -47 -1 -13 -9 -57 -29 -99
-43 -52 -18 -78 -33 -86 -48 -7 -13 -17 -28 -23 -34 -6 -6 -11 -25 -11 -42 0
-16 -4 -35 -8 -41 -10 -15 -83 -31 -182 -40 -47 -4 -79 -9 -72 -11 6 -3 12 -9
12 -15 0 -6 -24 -9 -57 -7 -55 2 -142 -15 -153 -30 -14 -20 -95 -51 -149 -57
-74 -8 -80 -27 -18 -53 30 -13 49 -16 68 -9 16 5 51 5 90 -1 35 -6 67 -11 71
-11 18 0 48 -47 48 -75 0 -52 -28 -69 -99 -61 -68 8 -98 -9 -86 -48 4 -12 9
-35 12 -52 5 -30 6 -31 31 -18 21 10 37 11 72 2 25 -6 66 -10 93 -9 47 2 48 1
51 -38 1 -17 26 -28 26 -12 0 6 7 11 16 11 14 0 16 7 11 40 -4 31 -2 40 12 45
10 3 28 16 41 30 20 21 22 28 12 50 -6 14 -16 25 -22 25 -5 0 -10 19 -10 43 0
57 15 64 155 70 74 3 120 10 140 21 17 9 46 16 65 16 20 0 53 9 75 20 22 11
48 20 60 20 11 0 29 7 39 15 27 20 49 19 80 -6 31 -24 33 -49 6 -74 -25 -22
-25 -34 -2 -51 23 -18 38 -17 83 4 45 20 47 30 17 83 -20 36 -20 39 -4 63 9
14 23 26 32 26 21 0 88 35 104 55 17 21 77 46 94 39 7 -3 25 0 39 5 26 10 27
13 27 90 0 69 -2 80 -16 74 -8 -3 -33 0 -55 7 -31 11 -39 18 -39 37 0 13 4 32
10 42 6 13 5 24 -5 37 -8 11 -15 32 -15 49 0 20 -11 41 -36 66 l-36 37 33 69
c45 93 79 118 133 97 20 -8 21 -38 1 -54 -20 -17 -19 -33 5 -61 19 -24 19 -24
20 274 0 163 -3 297 -7 296 -5 0 -19 -5 -33 -11z"/>
<path d="M6262 4873 c-13 -12 -22 -35 -25 -63 l-4 -45 45 4 c38 3 48 0 63 -20
10 -13 19 -34 19 -46 0 -32 38 -31 50 2 5 13 18 30 30 37 41 26 19 48 -49 48
-46 0 -71 24 -71 68 0 37 -25 43 -58 15z"/>
<path d="M6852 4308 c-7 -7 -12 -16 -12 -21 0 -5 -7 -24 -16 -43 -14 -29 -22
-34 -64 -40 -49 -6 -100 -42 -100 -69 0 -23 169 -16 192 8 27 26 44 21 61 -20
l16 -38 0 42 c1 23 -4 43 -11 45 -12 4 -13 51 -3 111 7 36 6 37 -22 37 -16 0
-34 -5 -41 -12z"/>
<path d="M5109 3957 c-15 -7 -40 -28 -58 -49 -31 -35 -31 -37 -19 -82 9 -33
17 -46 30 -46 10 0 18 5 18 10 0 6 7 10 15 10 9 0 18 7 21 15 4 8 12 15 20 15
24 0 74 52 74 76 0 22 -42 64 -64 64 -6 -1 -23 -6 -37 -13z"/>
<path d="M6746 3889 c-26 -21 -35 -49 -15 -49 7 0 8 -14 4 -39 -6 -34 -3 -41
14 -51 27 -14 27 -34 -1 -60 -22 -21 -22 -22 -5 -35 11 -8 25 -11 33 -8 8 3
14 1 14 -5 0 -5 -9 -12 -20 -15 -14 -4 -20 -14 -20 -34 0 -24 7 -32 43 -48 23
-11 58 -22 77 -25 24 -3 38 -13 47 -30 11 -22 13 -15 13 61 0 78 -2 87 -20 92
-11 3 -20 12 -20 21 0 12 -10 16 -34 16 -28 0 -36 5 -46 30 -11 27 -10 34 14
68 32 47 32 54 1 78 -14 10 -25 27 -25 36 0 24 -21 23 -54 -3z"/>
<path d="M5296 3753 c-14 -14 -36 -75 -31 -84 3 -4 23 -7 45 -6 27 1 46 -5 62
-19 13 -12 31 -24 41 -27 10 -4 17 -17 18 -34 0 -25 1 -26 9 -8 5 11 9 38 10
60 0 33 3 37 13 25 20 -26 89 -42 126 -29 26 9 31 16 31 43 0 47 -34 80 -73
72 -89 -18 -136 -19 -152 -2 -17 16 -85 22 -99 9z"/>
<path d="M6594 3600 c-31 -12 -36 -35 -18 -79 10 -26 24 -41 40 -45 26 -7 64
8 64 25 0 6 10 25 22 41 21 30 21 31 3 44 -10 8 -26 14 -34 14 -9 0 -25 2 -36
5 -11 2 -29 0 -41 -5z"/>
<path d="M5579 3370 c-6 -16 -15 -30 -20 -30 -5 0 -9 -20 -9 -45 0 -37 -3 -45
-18 -45 -24 0 -42 -19 -42 -44 0 -10 3 -17 6 -13 7 7 34 -17 34 -31 0 -29 64
-54 86 -33 21 20 85 50 97 45 7 -2 18 -18 24 -34 14 -38 49 -52 84 -34 29 14
39 39 39 97 0 36 -6 42 -40 37 -8 -1 -26 13 -41 31 -26 32 -29 33 -61 21 -49
-17 -158 -16 -158 2 0 26 12 46 27 46 10 0 13 6 9 15 -3 9 1 18 9 21 20 8 19
24 -1 24 -8 0 -20 -13 -25 -30z"/>
<path d="M6813 3223 c-7 -2 -13 -11 -13 -18 0 -23 -20 -28 -60 -15 -34 11 -41
11 -55 -4 -9 -9 -24 -16 -33 -16 -9 0 -43 -24 -74 -53 l-58 -53 0 -62 c0 -58
-2 -62 -22 -62 -13 -1 -33 -6 -46 -13 l-23 -13 21 -26 c11 -14 20 -31 20 -37
0 -7 21 -11 51 -11 l51 0 -4 42 c-2 40 -1 43 27 49 17 4 53 7 82 8 28 0 55 5
58 11 11 17 -9 35 -40 35 -41 0 -43 25 -7 66 l29 33 32 -27 c18 -15 44 -30 58
-33 56 -14 82 -66 48 -94 -8 -7 -15 -28 -15 -47 0 -74 -51 -119 -106 -94 -22
10 -26 8 -34 -13 -5 -14 -17 -29 -27 -35 -25 -14 -6 -45 30 -49 28 -3 60 -39
51 -54 -13 -20 8 -59 44 -82 27 -18 50 -24 85 -24 l47 1 0 264 0 263 -25 0
c-14 0 -25 -4 -25 -10 0 -18 -29 -10 -41 11 -10 19 -7 26 20 51 17 16 31 34
31 40 0 6 9 8 20 5 18 -4 20 0 20 35 0 34 -2 39 -17 33 -22 -10 -42 -10 -68
-3 -11 4 -26 4 -32 1z"/>
<path d="M6340 2775 c-8 -9 -10 -29 -7 -51 3 -19 2 -47 -4 -61 -14 -38 9 -58
63 -55 44 3 128 -29 128 -48 0 -18 26 -11 48 13 16 17 22 36 22 70 0 26 5 56
12 66 17 28 3 49 -39 56 -21 3 -52 10 -69 15 -48 16 -140 12 -154 -5z"/>
<path d="M6041 2124 c4 -53 -1 -90 -14 -108 -13 -18 -15 -17 -55 3 -32 16 -60
21 -122 21 l-80 0 -28 -39 c-15 -22 -35 -42 -44 -44 -11 -3 -18 -15 -18 -29 0
-44 -26 -68 -76 -68 -24 0 -44 5 -44 10 0 6 -4 10 -9 10 -12 0 -20 -49 -10
-56 5 -3 9 -10 9 -15 0 -6 -4 -8 -10 -4 -5 3 -19 0 -31 -7 -15 -9 -23 -10 -26
-2 -5 16 -54 4 -73 -17 -15 -18 -46 -24 -105 -20 -18 1 -25 4 -18 9 6 4 11 14
11 22 -3 42 2 52 22 47 10 -3 24 1 30 8 6 7 22 13 36 13 32 0 32 0 27 44 -5
36 -13 42 -66 54 -22 5 -60 -14 -52 -25 3 -5 -1 -21 -9 -36 -8 -15 -12 -34 -9
-41 3 -8 0 -14 -7 -14 -8 0 -10 -9 -6 -25 5 -21 1 -27 -26 -38 -33 -14 -54 -5
-41 16 3 5 -4 6 -16 2 -15 -5 -21 -2 -21 9 0 18 -21 21 -48 7 -41 -21 -69 -30
-97 -33 -27 -3 -30 -7 -30 -36 0 -23 -4 -32 -15 -30 -8 2 -26 -5 -40 -15 -13
-9 -32 -17 -42 -17 -10 0 -18 -4 -18 -10 0 -23 -29 -8 -39 20 -7 23 -16 30
-35 30 -15 0 -26 -5 -26 -11 0 -5 -4 -8 -9 -5 -5 3 -11 -1 -15 -9 -6 -16 -26
-21 -26 -7 0 14 33 48 54 55 10 4 16 10 13 14 -4 3 -20 0 -37 -7 -23 -9 -37
-10 -54 -2 -20 9 -25 7 -33 -11 l-10 -22 -7 23 c-4 12 -15 22 -26 22 -10 0
-30 15 -44 33 -48 59 -48 59 -55 49 -3 -6 -24 -13 -45 -17 -38 -8 -39 -7 -34
18 3 15 1 24 -3 21 -5 -3 -9 -14 -9 -24 0 -10 -4 -22 -10 -25 -5 -3 -10 -15
-10 -25 0 -25 -17 -35 -35 -20 -12 10 -15 9 -15 -3 0 -9 -9 -21 -21 -27 -16
-9 -25 -8 -42 6 -40 33 -97 96 -97 107 0 6 -7 4 -16 -5 -9 -9 -17 -34 -18 -57
-1 -40 -8 -51 -21 -31 -10 16 -35 11 -35 -7 0 -9 3 -13 7 -10 13 14 33 -15 27
-39 -5 -19 -3 -23 10 -18 10 4 27 -5 47 -25 17 -17 35 -31 40 -31 4 0 16 -14
24 -30 9 -17 20 -28 25 -25 9 5 27 -42 19 -49 -2 -2 -16 -6 -32 -10 -20 -5
-29 -2 -33 9 -9 22 -27 18 -21 -5 3 -11 -1 -23 -8 -28 -7 -4 -16 -17 -19 -29
-6 -18 -4 -22 8 -17 10 4 19 -3 27 -19 6 -14 20 -28 31 -30 12 -4 17 -10 13
-17 -4 -6 -17 -9 -30 -6 -14 4 -25 1 -28 -8 -4 -10 3 -12 24 -10 35 4 35 4 8
-42 -16 -29 -17 -35 -5 -31 9 4 16 2 16 -3 0 -10 -21 -14 -47 -11 -12 2 -14
-3 -17 -41 -1 -7 4 -13 11 -13 6 0 15 -3 19 -8 4 -4 0 -7 -9 -7 -10 0 -17 -8
-17 -20 0 -13 -7 -20 -20 -20 -15 0 -20 7 -20 25 0 14 -4 25 -10 25 -5 0 -7 7
-4 15 4 9 0 15 -9 15 -9 0 -19 9 -22 20 -3 11 -13 20 -21 20 -17 0 -17 5 2
-59 8 -29 14 -54 12 -56 -2 -2 -16 8 -33 21 -26 21 -28 26 -18 43 14 22 12 23
-62 37 l-40 7 35 8 c19 4 38 5 42 3 14 -9 38 24 38 53 l0 28 18 -23 c14 -18
20 -20 30 -10 9 9 12 9 12 0 0 -7 7 -12 15 -12 8 0 15 9 15 20 0 11 -4 20 -10
20 -16 0 -12 15 13 43 15 18 22 38 21 64 -1 37 -2 38 -41 41 -25 2 -46 -2 -55
-11 -7 -8 -31 -20 -53 -27 -22 -7 -45 -17 -52 -22 -7 -5 -22 -7 -34 -3 -14 5
-19 4 -15 -4 4 -7 1 -9 -7 -5 -8 3 -18 1 -21 -5 -4 -6 -16 -6 -36 0 -20 8 -31
19 -35 41 -4 17 -22 44 -41 60 -38 34 -44 58 -14 58 11 0 20 5 20 10 0 6 12
10 27 10 49 0 10 18 -50 23 -31 3 -68 12 -82 21 -30 20 -45 20 -45 2 0 -17
-68 -29 -89 -15 -12 8 -11 9 8 3 l23 -6 -23 31 c-13 18 -27 27 -33 23 -27 -20
-63 -30 -63 -19 0 7 -3 19 -7 27 -3 8 -2 21 3 29 8 12 15 13 34 4 19 -9 25 -8
35 8 16 25 15 32 -3 25 -18 -7 -18 -7 0 38 8 20 20 36 25 36 6 0 10 5 10 11 0
6 -5 7 -12 2 -7 -4 -37 -6 -67 -4 -51 3 -54 2 -48 -18 3 -12 1 -24 -4 -27 -5
-3 -9 0 -9 5 0 6 -20 11 -45 11 -41 0 -50 -6 -47 -31 2 -11 -50 -22 -86 -20
-27 2 -33 -1 -32 -16 4 -32 0 -43 -14 -43 -21 0 -38 -24 -25 -37 13 -13 59 6
59 25 0 19 18 14 30 -9 9 -16 14 -18 26 -8 8 7 13 18 10 25 -3 7 5 14 19 16
16 3 22 1 18 -8 -2 -6 1 -15 7 -19 6 -4 15 -18 20 -31 6 -14 20 -26 37 -29 15
-4 45 -13 65 -22 20 -9 48 -13 61 -9 19 4 26 1 30 -14 3 -11 1 -18 -4 -14 -5
3 -9 -1 -9 -9 0 -8 -18 -21 -39 -29 -34 -14 -42 -14 -60 -2 -12 9 -22 11 -26
4 -10 -16 5 -31 26 -25 13 4 21 1 26 -12 4 -10 13 -24 20 -31 29 -30 14 -37
-82 -40 -52 -1 -95 1 -95 5 0 3 7 15 17 25 15 17 15 18 -1 18 -9 0 -31 -7 -49
-17 -29 -15 -30 -17 -12 -24 19 -7 19 -8 -3 -8 -12 -1 -25 -8 -28 -16 -4 -8
-14 -15 -23 -15 -24 0 -30 -8 -24 -30 3 -12 18 -21 44 -25 47 -8 47 -31 0 -27
-39 3 -40 -8 0 -30 33 -19 37 -54 6 -52 -13 1 -16 -3 -12 -16 6 -18 4 -18 -34
-3 -26 10 -41 23 -43 37 -2 15 -11 21 -33 23 -16 1 -33 -3 -36 -9 -6 -9 -12
-8 -25 3 -16 13 -54 14 -64 0 -3 -3 -15 -12 -27 -19 -21 -11 -23 -10 -23 13 0
15 -6 25 -14 25 -19 0 -32 20 -19 29 6 3 14 21 18 39 6 28 4 32 -15 32 -19 0
-21 -4 -16 -25 5 -19 2 -25 -9 -25 -12 0 -15 6 -10 21 13 39 -15 16 -85 -71
-46 -58 -65 -89 -59 -97 7 -7 6 -14 -1 -18 -5 -3 -10 -20 -10 -36 0 -17 -4
-28 -10 -24 -6 3 -7 -1 -4 -9 7 -18 30 -21 40 -5 5 8 9 8 14 -1 10 -15 30 -4
30 16 0 22 44 14 48 -8 2 -10 -6 -30 -17 -44 -21 -27 -21 -27 -21 -4 l0 23
-24 -22 c-23 -22 -26 -22 -48 -7 -32 22 -35 21 -40 -20 -3 -24 1 -38 10 -43
10 -6 13 -15 8 -27 -5 -12 -9 -15 -14 -7 -4 7 -20 17 -35 22 -26 10 -27 12
-13 27 18 17 22 39 6 29 -18 -11 -11 4 12 25 27 25 17 37 -14 16 -12 -9 -30
-16 -40 -16 -13 0 -18 -8 -19 -27 -1 -16 -3 -21 -6 -11 -3 11 -15 16 -39 16
-33 0 -34 -2 -34 -36 0 -42 13 -71 24 -53 9 14 41 -16 55 -52 13 -33 6 -54
-20 -62 -20 -7 -26 -25 -8 -25 6 0 9 -10 8 -22 -2 -13 0 -28 4 -35 4 -6 3 -14
-3 -18 -5 -3 -10 -1 -10 5 0 6 -14 8 -40 4 -25 -4 -45 -2 -54 5 -8 7 -46 15
-85 18 -73 6 -87 17 -55 44 12 10 20 10 35 1 24 -15 29 -15 29 1 -1 6 -13 21
-27 32 -47 36 -63 55 -63 71 0 13 11 15 69 12 53 -3 68 -1 64 8 -3 7 -13 16
-23 19 -29 9 -32 33 -5 51 29 19 23 44 -11 44 -13 0 -24 5 -24 10 0 18 -29 11
-50 -12 -24 -26 -26 -51 -5 -68 14 -12 14 -15 -1 -31 -22 -24 -45 -24 -72 1
-12 11 -25 20 -30 20 -19 0 -62 -26 -67 -40 -6 -20 -57 -50 -83 -50 -11 0 -29
10 -39 23 -25 32 -51 40 -76 22 -12 -8 -16 -15 -10 -15 7 0 2 -15 -12 -35 -13
-20 -26 -41 -28 -48 -3 -9 -9 -9 -26 1 -18 10 -21 10 -21 -4 0 -17 15 -35 42
-50 16 -9 17 -12 2 -32 -9 -13 -26 -22 -42 -22 -23 -1 -25 -2 -9 -11 9 -5 21
-8 26 -5 22 14 40 -6 34 -36 -6 -31 -6 -31 31 -25 l38 6 -4 -34 c-4 -31 -1
-35 19 -35 19 0 23 5 24 33 0 17 3 26 6 19 2 -7 12 -16 21 -21 15 -8 17 -4 14
34 -3 34 -8 44 -25 49 -25 6 -37 0 -37 -20 0 -11 -7 -13 -27 -8 -34 8 -42 14
-20 14 9 0 17 4 17 8 0 16 77 37 140 37 64 0 65 0 68 28 3 25 7 28 28 23 13
-4 24 -2 24 3 0 6 7 8 15 5 18 -7 20 -27 3 -22 -7 3 -21 -12 -31 -31 -10 -20
-25 -41 -33 -48 -10 -7 -12 -13 -5 -18 18 -11 12 -30 -21 -69 -18 -21 -34 -32
-38 -26 -4 6 -20 8 -37 4 -38 -8 -50 -39 -22 -57 25 -16 24 -30 -1 -22 -21 7
-44 -10 -46 -32 -2 -29 -5 -33 -18 -33 -24 0 -28 -17 -6 -23 11 -3 27 1 35 10
8 8 15 10 15 4 0 -6 5 -11 11 -11 5 0 7 5 4 10 -3 6 3 10 14 10 15 0 21 6 21
21 0 12 8 23 20 26 11 3 20 9 20 14 0 5 5 9 10 9 6 0 10 -6 10 -14 0 -16 18
-31 26 -23 3 3 -1 15 -8 26 -11 18 -11 23 2 31 20 12 34 -15 32 -57 -3 -32 10
-44 23 -23 4 6 18 4 37 -6 29 -15 34 -15 59 0 15 9 35 16 46 15 10 0 4 -6 -17
-14 l-35 -13 43 -1 c23 -1 42 4 42 9 0 10 49 -16 61 -33 3 -4 18 -3 34 3 37
14 43 6 7 -9 -23 -10 -47 -10 -103 -1 -137 20 -292 31 -303 20 -7 -7 0 -10 21
-10 18 0 34 -4 37 -9 9 -14 -51 -46 -111 -60 -33 -8 -66 -25 -87 -45 l-36 -32
32 -28 c46 -40 84 -57 136 -61 26 -3 78 -7 115 -11 110 -10 777 -6 957 6 91 6
226 15 300 20 74 5 189 14 255 19 66 6 230 18 365 26 135 8 261 17 280 20 19
3 62 7 95 10 144 12 317 27 400 36 50 5 245 14 435 19 354 10 477 20 524 41
33 15 36 64 5 103 -18 23 -19 29 -7 44 7 9 16 19 20 22 4 4 17 32 27 63 24 68
17 98 -26 119 -26 12 -28 18 -28 71 0 36 4 58 12 62 19 7 16 32 -4 44 -16 9
-15 10 8 11 40 0 64 22 51 46 -6 11 -10 35 -10 53 1 33 2 33 42 28 23 -2 47
-6 55 -8 23 -6 39 39 45 121 3 41 3 66 0 55 -4 -11 -12 -27 -20 -36 -8 -9 -13
-18 -12 -20 2 -2 -2 1 -8 8 -6 7 -21 13 -33 13 -19 0 -21 -4 -16 -34 5 -26 3
-35 -11 -40 -18 -7 -64 18 -64 35 0 6 -8 9 -17 8 -35 -3 -35 1 -2 39 44 51 56
56 84 38 15 -10 26 -12 30 -6 3 6 15 10 26 10 12 0 19 7 19 20 0 11 -5 20 -12
20 -6 0 -9 2 -7 5 10 10 49 -8 49 -23 0 -13 3 -12 14 4 8 11 14 31 14 44 0 14
5 52 11 85 7 33 14 84 18 113 3 28 8 52 12 52 20 -1 103 -36 167 -71 43 -24
81 -38 90 -35 23 9 1 33 -38 41 -23 5 -34 16 -47 46 -10 23 -24 39 -36 41 -11
2 -19 10 -17 17 3 13 -29 13 -111 -1 -29 -5 -47 62 -47 172 -1 239 1 264 20
304 11 22 16 44 12 50 -4 6 -7 22 -7 35 0 13 -6 26 -13 29 -10 3 -13 -4 -11
-24z m-1425 -665 c3 -5 14 -9 25 -9 19 0 59 -52 59 -76 0 -6 -13 -17 -30 -24
-29 -12 -43 -50 -19 -50 6 0 9 -6 6 -14 -3 -7 -1 -18 4 -23 6 -6 7 -23 3 -38
-6 -25 -8 -26 -19 -12 -16 22 -25 11 -25 -28 0 -18 -7 -38 -15 -45 -9 -8 -13
-21 -9 -36 4 -14 2 -24 -4 -24 -15 0 -22 14 -35 68 -9 37 -17 48 -34 50 -16 2
-23 -2 -23 -12 0 -9 6 -16 14 -16 17 0 26 -21 26 -60 0 -31 -22 -45 -47 -31
-14 7 -13 10 5 20 31 16 27 32 -6 29 -38 -3 -56 10 -42 27 8 10 8 19 1 33 -16
29 4 77 42 102 21 14 25 19 11 16 -18 -5 -20 -2 -20 26 0 18 -4 41 -8 51 -6
12 -4 17 9 17 12 0 15 5 10 20 -9 28 11 25 42 -6 17 -17 31 -23 42 -18 9 4 19
6 24 6 20 -5 3 15 -23 26 -41 19 -41 50 0 44 17 -2 33 -8 36 -13z m-1219 -156
c10 -13 16 -15 19 -5 8 17 24 15 24 -3 0 -7 -7 -18 -16 -23 -15 -8 -15 -11 4
-30 14 -14 23 -17 26 -9 5 9 7 9 12 0 3 -7 11 -13 19 -13 7 0 18 -6 24 -14 9
-10 5 -21 -19 -46 -29 -32 -32 -50 -5 -50 7 0 15 7 19 15 3 8 13 15 23 15 26
0 78 67 64 83 -7 10 0 17 29 30 53 23 92 14 109 -25 15 -34 52 -74 64 -70 4 1
7 -7 7 -18 0 -11 -5 -20 -12 -20 -29 0 6 -13 45 -17 36 -3 47 1 67 22 23 25
70 35 70 15 0 -5 -9 -10 -20 -10 -37 0 -85 -66 -55 -75 52 -16 50 -15 33 -31
-11 -11 -25 -14 -52 -9 -20 4 -36 11 -36 16 0 5 -3 8 -7 7 -5 -1 -27 6 -50 17
-30 13 -39 21 -30 28 7 5 2 6 -13 1 -31 -8 -39 -15 -22 -21 27 -10 10 -21 -33
-21 -25 0 -45 4 -45 9 0 18 -36 8 -45 -13 -15 -32 -28 -32 -49 1 -14 21 -31
31 -59 35 -46 8 -51 5 -43 -21 7 -22 78 -63 108 -63 24 0 19 -19 -8 -34 -10
-6 -21 -14 -24 -18 -9 -11 -84 -4 -97 9 -7 6 -13 19 -13 27 0 9 -6 16 -12 16
-23 0 -39 -16 -32 -33 7 -20 20 -22 27 -4 3 8 7 7 12 -5 8 -21 -33 -108 -52
-108 -7 0 -13 5 -13 10 0 6 4 10 9 10 20 0 23 41 4 55 -14 11 -15 16 -6 26 14
15 0 39 -23 39 -8 0 -14 5 -14 11 0 6 7 9 15 5 17 -6 55 22 55 40 0 7 -8 10
-21 7 -11 -3 -31 0 -45 7 -29 16 -48 3 -19 -12 19 -11 19 -11 0 -18 -11 -4
-25 -3 -31 2 -8 5 -25 2 -48 -9 -35 -16 -37 -16 -66 5 -36 27 -63 29 -56 5 16
-56 18 -76 7 -69 -7 4 -15 -2 -20 -16 -9 -22 -9 -22 -17 -4 -5 13 -3 21 4 24
19 6 14 29 -8 35 -20 5 -44 52 -35 67 10 16 85 23 101 9 13 -10 17 -10 24 2 7
10 3 16 -13 21 -21 6 -21 6 -1 7 11 1 29 9 40 19 30 26 80 52 88 45 3 -3 6 -1
6 5 0 7 3 11 8 10 14 -4 57 15 69 31 7 9 10 28 7 43 -7 33 3 68 18 68 6 0 17
-8 25 -17z m2209 -290 c-2 -27 -9 -41 -25 -48 -12 -5 -24 -18 -27 -27 -3 -10
-10 -18 -15 -18 -5 0 -9 -7 -9 -16 0 -9 -16 -38 -35 -64 -36 -49 -78 -68 -102
-48 -19 15 -16 28 6 28 32 0 76 43 67 66 -6 12 -10 15 -13 7 -10 -28 -21 -10
-20 35 0 26 2 41 4 35 3 -7 13 -13 23 -13 13 0 18 6 16 24 -3 25 26 46 63 46
10 0 24 7 31 15 23 28 39 18 36 -22z m-2379 -176 c14 1 20 -4 16 -13 -3 -8 0
-14 6 -14 6 0 11 5 11 10 0 6 5 10 11 10 6 0 9 -7 5 -15 -3 -8 -2 -15 3 -15 5
0 11 -8 14 -19 4 -18 67 -37 67 -20 0 12 35 20 53 13 17 -6 14 -49 -4 -85 -8
-15 -4 -16 33 -4 45 13 59 31 37 47 -11 7 -9 8 6 6 15 -3 20 -11 20 -33 0 -18
10 -41 23 -55 12 -13 22 -28 22 -33 0 -5 7 -4 15 3 19 16 35 5 35 -25 0 -26
-15 -34 -77 -45 -34 -5 -43 -4 -43 7 0 9 -8 13 -22 11 -13 -2 -22 -9 -20 -16
3 -16 -23 -26 -45 -18 -15 6 -15 8 -3 16 9 6 10 10 3 10 -6 0 -14 -4 -18 -10
-3 -5 -11 -7 -19 -4 -7 3 -26 -1 -42 -7 -16 -7 -32 -13 -35 -13 -4 -1 -15 -11
-25 -22 -18 -21 -81 -44 -70 -26 3 5 -1 18 -9 28 -12 16 -11 21 2 36 19 21 8
58 -18 58 -10 0 -19 5 -19 10 0 6 11 8 25 6 13 -3 27 0 30 5 4 5 16 9 28 9 12
0 31 7 41 15 19 14 19 15 -6 15 -33 0 -46 19 -25 35 20 14 22 50 4 84 -16 31
-32 24 -33 -14 -1 -16 -6 -43 -12 -60 l-10 -30 -1 28 c-1 32 -28 77 -46 77
-16 0 -26 25 -19 44 7 19 32 26 64 18 14 -3 35 -5 47 -5z m-401 -369 c15 -15
-6 -38 -36 -38 -16 0 -30 -4 -30 -9 0 -5 -12 -11 -27 -13 -20 -2 -29 -9 -31
-25 -3 -20 -9 -23 -50 -23 -56 0 -86 15 -61 30 11 6 15 18 11 35 -3 19 0 25
14 25 11 0 31 8 46 18 21 14 40 16 92 12 35 -3 68 -8 72 -12z m1390 -74 c0
-55 -18 -75 -31 -35 -8 28 -42 22 -76 -12 -16 -16 -33 -26 -38 -23 -5 3 -26 8
-46 11 -48 6 -54 12 -24 24 l24 10 -22 7 c-52 15 -3 66 55 57 23 -4 32 -10 28
-19 -9 -24 13 -12 50 26 9 10 27 14 47 12 32 -4 33 -4 33 -58z"/>
<path d="M6519 1998 c0 -2 -2 -18 -5 -37 -2 -19 -11 -42 -20 -52 -12 -13 -14
-28 -9 -61 6 -36 3 -47 -14 -62 -12 -11 -21 -30 -21 -43 0 -25 63 -101 83
-100 19 1 107 -26 107 -34 0 -11 29 -19 45 -13 22 9 19 87 -5 134 -11 22 -20
46 -20 55 0 8 -7 15 -16 15 -8 0 -22 17 -30 37 -13 30 -14 44 -5 74 6 20 11
42 11 48 0 17 -96 54 -101 39z"/>
<path d="M6145 1843 c-55 -50 -58 -56 -42 -66 11 -7 42 -27 70 -44 73 -47 77
-45 77 35 0 44 5 75 15 88 18 24 19 37 3 31 -7 -2 -24 -1 -38 3 -22 6 -35 -1
-85 -47z"/>
<path d="M6830 1875 c0 -8 -4 -15 -10 -15 -20 0 -59 -75 -62 -120 -3 -44 -2
-45 24 -42 23 3 68 -9 131 -33 15 -7 17 2 17 92 0 93 -1 100 -22 111 -43 20
-78 24 -78 7z"/>
<path d="M2954 1711 c3 -4 -13 -14 -34 -21 -22 -7 -40 -19 -40 -27 0 -7 -11
-23 -25 -35 -34 -30 -32 -48 6 -48 30 0 31 -2 25 -30 -3 -19 -2 -29 4 -25 6 3
10 -1 10 -9 0 -20 -9 -20 -34 -1 -28 21 -42 19 -23 -3 10 -10 17 -24 17 -30 0
-16 22 -15 46 3 10 8 26 15 35 15 23 0 49 32 32 37 -20 7 -15 20 9 26 17 5 19
9 9 20 -13 17 -6 43 15 51 22 9 18 46 -6 46 -23 0 -26 10 -8 28 9 9 6 12 -16
12 -15 0 -25 -4 -22 -9z"/>
<path d="M2618 1565 c-6 -14 -14 -25 -17 -25 -4 0 -7 -8 -8 -18 -2 -31 -8 -46
-20 -60 -17 -18 -16 -33 1 -26 11 4 13 0 9 -15 -4 -17 -2 -20 11 -15 9 3 16 1
16 -6 0 -6 4 -9 9 -6 10 7 20 -26 22 -69 0 -16 3 -24 6 -17 2 6 11 12 19 12 8
0 14 5 14 12 0 9 3 9 12 0 14 -14 42 -16 33 -3 -3 5 4 12 15 16 11 3 20 13 20
21 0 9 11 14 29 14 34 0 49 16 32 33 -9 9 -15 8 -23 -6 -9 -18 -10 -18 -23 -1
-11 16 -15 16 -29 5 -9 -7 -16 -20 -16 -27 0 -19 -19 -18 -26 1 -4 8 -10 12
-15 9 -5 -3 -25 2 -44 12 -30 14 -34 20 -29 43 8 31 32 61 51 61 16 0 17 21 1
55 -14 32 -35 32 -50 0z"/>
<path d="M6725 1367 c-13 -10 -16 -21 -12 -38 5 -19 -1 -31 -24 -53 -28 -27
-29 -30 -13 -47 16 -17 220 -109 243 -109 14 0 15 134 1 160 -5 10 -27 24 -47
30 -21 7 -55 25 -75 41 -42 33 -47 34 -73 16z"/>
<path d="M1328 1155 c-6 -14 -19 -25 -27 -25 -9 0 -17 -8 -17 -18 0 -14 6 -17
30 -14 28 4 28 3 21 -24 -4 -16 -7 -38 -5 -49 1 -11 3 -32 4 -47 1 -28 4 -27
52 9 17 13 33 23 35 23 3 0 3 -18 1 -40 -2 -23 1 -47 8 -55 10 -12 9 -15 -8
-15 -12 0 -23 4 -26 9 -7 10 -56 21 -56 12 0 -4 9 -14 20 -24 11 -9 20 -26 20
-37 0 -13 7 -20 19 -20 13 0 26 -15 40 -43 30 -61 28 -77 -9 -74 -16 1 -30 5
-30 10 0 10 -52 8 -70 -3 -10 -7 -3 -8 25 -5 22 3 35 3 29 0 -8 -4 -9 -15 -3
-33 5 -15 11 -39 14 -54 3 -16 12 -28 19 -28 8 0 16 -10 19 -22 6 -21 61 -59
91 -64 7 -1 18 7 25 18 10 17 9 20 -6 24 -11 3 -25 14 -32 25 -10 18 -9 23 7
37 10 9 23 26 29 36 13 24 52 28 76 8 19 -17 23 -52 6 -69 -15 -15 9 -40 45
-47 14 -2 31 -8 37 -12 19 -12 -13 -25 -46 -18 -25 6 -28 4 -18 -8 15 -18 71
-22 90 -6 12 10 21 5 50 -26 41 -43 81 -62 97 -46 5 5 31 10 57 10 54 0 68 19
48 64 -10 22 -19 26 -56 26 -31 0 -43 -4 -43 -14 0 -8 -5 -18 -11 -22 -7 -4
-9 0 -5 14 8 24 -17 33 -50 19 -15 -6 -30 -4 -50 7 -29 15 -29 15 -6 22 19 6
23 13 20 40 -1 18 1 36 5 40 19 19 5 34 -32 34 -45 0 -71 8 -71 22 0 5 -12 30
-27 56 -26 44 -28 45 -34 22 -7 -24 -7 -24 -8 -2 -1 29 2 37 14 37 41 2 76 65
36 65 -30 0 -51 11 -51 26 0 8 -8 14 -19 14 -10 0 -24 7 -31 15 -9 11 -17 12
-32 4 -11 -6 -36 -8 -55 -4 -33 6 -35 8 -29 37 8 39 23 58 42 51 8 -3 21 0 29
7 22 18 48 5 40 -21 -7 -20 -5 -21 21 -15 37 10 36 9 25 40 -9 23 -16 26 -60
26 -27 0 -53 5 -56 10 -4 6 -10 8 -15 5 -4 -3 -16 12 -25 32 -14 30 -19 33
-26 20 -12 -20 -39 -11 -39 12 0 20 -19 41 -37 41 -7 0 -19 -11 -25 -25z"/>
</g>
</svg>
